<svg xmlns="http://www.w3.org/2000/svg" xmlns:xlink="http://www.w3.org/1999/xlink" width="500" height="500" preserveAspectRatio="xMidYMid meet" version="1.0" viewBox="0 0 375 375" zoomAndPan="magnify"><defs><clipPath id="f777029e3d"><path d="M 0 62.304688 L 375 62.304688 L 375 318 L 0 318 Z M 0 62.304688" clip-rule="nonzero"/></clipPath><clipPath id="e40d3d2bca"><path d="M 17.25 62.304688 L 357.75 62.304688 C 362.324219 62.304688 366.710938 64.121094 369.949219 67.359375 C 373.183594 70.59375 375 74.980469 375 79.554688 L 375 300.492188 C 375 305.066406 373.183594 309.453125 369.949219 312.6875 C 366.710938 315.921875 362.324219 317.742188 357.75 317.742188 L 17.25 317.742188 C 12.675781 317.742188 8.289062 315.921875 5.050781 312.6875 C 1.816406 309.453125 0 305.066406 0 300.492188 L 0 79.554688 C 0 74.980469 1.816406 70.59375 5.050781 67.359375 C 8.289062 64.121094 12.675781 62.304688 17.25 62.304688" clip-rule="nonzero"/></clipPath></defs><g clip-path="url(#f777029e3d)"><g clip-path="url(#e40d3d2bca)"><path fill="#0e141b" fill-opacity="1" fill-rule="nonzero" d="M 0 62.304688 L 374.414062 62.304688 L 374.414062 317.1875 L 0 317.1875 Z M 0 62.304688"/></g></g><g fill="#facc15" fill-opacity="1"><g><g><path d="M 76.25 -55.390625 C 76.25 -48.328125 75.628906 -41.847656 74.390625 -35.953125 C 73.148438 -30.066406 71.238281 -24.816406 68.65625 -20.203125 C 66.070312 -15.597656 62.753906 -11.6875 58.703125 -8.46875 C 54.648438 -5.25 49.8125 -2.804688 44.1875 -1.140625 C 38.570312 0.515625 32.097656 1.34375 24.765625 1.34375 C 22.742188 1.34375 20.394531 1.296875 17.71875 1.203125 C 15.039062 1.117188 12.78125 0.941406 10.9375 0.671875 L 10.9375 -20.4375 C 12.863281 -20.125 14.796875 -19.863281 16.734375 -19.65625 C 18.671875 -19.457031 20.921875 -19.359375 23.484375 -19.359375 C 30.898438 -19.359375 36.644531 -20.414062 40.71875 -22.53125 C 44.789062 -24.644531 47.660156 -27.578125 49.328125 -31.328125 C 50.992188 -35.085938 51.957031 -39.421875 52.21875 -44.328125 L 51.421875 -44.328125 C 50.242188 -42.128906 48.820312 -40.160156 47.15625 -38.421875 C 45.5 -36.691406 43.410156 -35.332031 40.890625 -34.34375 C 38.367188 -33.351562 35.242188 -32.859375 31.515625 -32.859375 C 25.984375 -32.859375 21.179688 -34.117188 17.109375 -36.640625 C 13.035156 -39.160156 9.875 -42.816406 7.625 -47.609375 C 5.375 -52.398438 4.25 -58.234375 4.25 -65.109375 C 4.25 -72.441406 5.65625 -78.707031 8.46875 -83.90625 C 11.28125 -89.101562 15.304688 -93.09375 20.546875 -95.875 C 25.785156 -98.664062 32.023438 -100.0625 39.265625 -100.0625 C 44.398438 -100.0625 49.203125 -99.179688 53.671875 -97.421875 C 58.148438 -95.671875 62.078125 -92.984375 65.453125 -89.359375 C 68.828125 -85.742188 71.46875 -81.125 73.375 -75.5 C 75.289062 -69.875 76.25 -63.171875 76.25 -55.390625 Z M 39.9375 -78.75 C 36.84375 -78.75 34.425781 -77.691406 32.6875 -75.578125 C 30.957031 -73.460938 30.09375 -70.0625 30.09375 -65.375 C 30.09375 -61.6875 30.898438 -58.765625 32.515625 -56.609375 C 34.140625 -54.453125 36.523438 -53.375 39.671875 -53.375 C 41.648438 -53.375 43.394531 -53.898438 44.90625 -54.953125 C 46.414062 -56.015625 47.597656 -57.363281 48.453125 -59 C 49.304688 -60.644531 49.734375 -62.34375 49.734375 -64.09375 C 49.734375 -65.851562 49.539062 -67.597656 49.15625 -69.328125 C 48.769531 -71.054688 48.179688 -72.628906 47.390625 -74.046875 C 46.609375 -75.460938 45.597656 -76.597656 44.359375 -77.453125 C 43.128906 -78.316406 41.65625 -78.75 39.9375 -78.75 Z M 39.9375 -78.75" transform="translate(36.574221, 243.64773)"/></g></g></g><g fill="#facc15" fill-opacity="1"><g><g><path d="M 44.796875 -98.640625 C 57.304688 -98.640625 66.675781 -95.914062 72.90625 -90.46875 C 79.132812 -85.03125 82.25 -77.296875 82.25 -67.265625 C 82.25 -62.773438 81.609375 -58.457031 80.328125 -54.3125 C 79.046875 -50.175781 76.953125 -46.488281 74.046875 -43.25 C 71.148438 -40.007812 67.304688 -37.441406 62.515625 -35.546875 C 57.722656 -33.660156 51.816406 -32.71875 44.796875 -32.71875 L 37.3125 -32.71875 L 37.3125 0 L 10.65625 0 L 10.65625 -98.640625 Z M 44.203125 -77.125 L 37.3125 -77.125 L 37.3125 -54.453125 L 42.578125 -54.453125 C 44.867188 -54.453125 47.003906 -54.84375 48.984375 -55.625 C 50.960938 -56.414062 52.546875 -57.695312 53.734375 -59.46875 C 54.929688 -61.25 55.53125 -63.625 55.53125 -66.59375 C 55.53125 -69.695312 54.609375 -72.226562 52.765625 -74.1875 C 50.921875 -76.144531 48.066406 -77.125 44.203125 -77.125 Z M 44.203125 -77.125" transform="translate(117.536587, 243.64773)"/></g></g></g><g fill="#facc15" fill-opacity="1"><g><g><path d="M 53.640625 0 L 33.46875 -71.046875 L 32.859375 -71.046875 C 33.035156 -69.203125 33.222656 -66.707031 33.421875 -63.5625 C 33.628906 -60.414062 33.820312 -57.019531 34 -53.375 C 34.1875 -49.726562 34.28125 -46.21875 34.28125 -42.84375 L 34.28125 0 L 10.65625 0 L 10.65625 -98.640625 L 46.15625 -98.640625 L 66.734375 -28.609375 L 67.265625 -28.609375 L 87.453125 -98.640625 L 123 -98.640625 L 123 0 L 98.515625 0 L 98.515625 -43.25 C 98.515625 -46.351562 98.566406 -49.691406 98.671875 -53.265625 C 98.785156 -56.847656 98.921875 -60.222656 99.078125 -63.390625 C 99.242188 -66.566406 99.394531 -69.078125 99.53125 -70.921875 L 98.921875 -70.921875 L 79.015625 0 Z M 53.640625 0" transform="translate(204.841006, 243.64773)"/></g></g></g></svg>