<svg xmlns="http://www.w3.org/2000/svg" width="500" height="500" version="1.0" viewBox="0 0 375 375"><defs><clipPath id="a"><path d="M48.406 35.688h278.188v278.187H48.406Zm0 0"/></clipPath><clipPath id="b"><path d="M187.5 35.688c-76.82 0-139.094 62.273-139.094 139.093 0 76.817 62.274 139.094 139.094 139.094s139.094-62.277 139.094-139.094c0-76.82-62.274-139.094-139.094-139.094"/></clipPath><clipPath id="c"><path d="M111 215h153v120.426H111Zm0 0"/></clipPath><clipPath id="d"><path d="M90.918 177H102v23H90.918Zm0 0"/></clipPath><clipPath id="e"><path d="M273 177h11.418v23H273Zm0 0"/></clipPath><clipPath id="f"><path d="M137 109.676h101V277H137Zm0 0"/></clipPath></defs><path fill="#fff" d="M-37.5-37.5h450v450h-450z"/><path fill="#fff" d="M-37.5-37.5h450v450h-450z"/><path fill="#0e141b" d="M-37.5-37.5h450v450h-450z"/><g clip-path="url(#a)"><g clip-path="url(#b)"><path fill="#facc15" d="M48.406 35.688h278.188v278.187H48.406Zm0 0"/></g></g><g clip-path="url(#c)"><path fill="#0e141b" d="M258.492 215.965c-.351 0-.699.031-1.043.101-.344.067-.68.168-1.004.305a5.259 5.259 0 0 0-1.738 1.16 5.302 5.302 0 0 0-1.16 1.735 5.52 5.52 0 0 0-.305 1.004 5.488 5.488 0 0 0-.101 1.042c0 1.07-.028 2.145-.078 3.215a67.695 67.695 0 0 1-.239 3.207 62.568 62.568 0 0 1-.394 3.196 61.679 61.679 0 0 1-.551 3.168 60.817 60.817 0 0 1-.703 3.14 64.989 64.989 0 0 1-1.871 6.156 65.02 65.02 0 0 1-5.496 11.614 65.105 65.105 0 0 1-7.664 10.324 65.639 65.639 0 0 1-23.504 16.54c-.993.41-1.993.796-3.004 1.155a66.478 66.478 0 0 1-9.3 2.574 68.112 68.112 0 0 1-6.372.942 67.476 67.476 0 0 1-3.211.238 67.95 67.95 0 0 1-3.219.078c-1.074 0-2.144-.027-3.219-.078a68.246 68.246 0 0 1-3.21-.238 66.375 66.375 0 0 1-6.367-.941 66.452 66.452 0 0 1-6.247-1.567 60.84 60.84 0 0 1-3.058-1.008 63.484 63.484 0 0 1-3.004-1.156 68.14 68.14 0 0 1-2.946-1.305c-.968-.46-1.93-.941-2.875-1.445a70.57 70.57 0 0 1-2.8-1.586 67.947 67.947 0 0 1-2.723-1.723 72.433 72.433 0 0 1-2.633-1.851c-.86-.64-1.707-1.3-2.535-1.98a65.847 65.847 0 0 1-2.441-2.102 69.306 69.306 0 0 1-2.332-2.219 65.217 65.217 0 0 1-4.32-4.766 65.077 65.077 0 0 1-1.985-2.535 65.014 65.014 0 0 1-1.852-2.632 61.319 61.319 0 0 1-1.722-2.72 63.59 63.59 0 0 1-3.036-5.671c-.46-.969-.894-1.95-1.304-2.941a65.08 65.08 0 0 1-3.735-12.297 61.68 61.68 0 0 1-.55-3.168 67.289 67.289 0 0 1-.395-3.196 67.695 67.695 0 0 1-.238-3.207 67.911 67.911 0 0 1-.078-3.214c0-.352-.035-.7-.102-1.043a5.52 5.52 0 0 0-.305-1.004 5.302 5.302 0 0 0-1.16-1.734 5.317 5.317 0 0 0-2.742-1.466 5.188 5.188 0 0 0-1.043-.101c-.351 0-.7.031-1.043.101-.347.067-.68.168-1.004.305a5.317 5.317 0 0 0-1.738 1.16c-.25.246-.469.516-.664.809a5.278 5.278 0 0 0-.8 1.93c-.071.343-.102.69-.102 1.042 0 2.383.117 4.762.343 7.137.227 2.371.563 4.73 1.008 7.07a76.842 76.842 0 0 0 1.668 6.95 77.897 77.897 0 0 0 2.313 6.761 76.123 76.123 0 0 0 6.464 12.73 76.703 76.703 0 0 0 8.723 11.302 75.24 75.24 0 0 0 5.117 4.992A76.38 76.38 0 0 0 168.09 295a76.258 76.258 0 0 0 14.094 2.344v27.176h-33.188c-.351 0-.7.035-1.043.101-.344.07-.68.172-1.004.305a5.55 5.55 0 0 0-.926.496 5.531 5.531 0 0 0-.812.664 5.531 5.531 0 0 0-1.16 1.734c-.133.325-.235.66-.305 1.004a5.488 5.488 0 0 0-.101 1.043c0 .352.035.7.101 1.043.07.344.172.68.305 1.004a5.302 5.302 0 0 0 1.16 1.734 5.317 5.317 0 0 0 2.742 1.465c.344.07.692.102 1.043.102h77.078a5.254 5.254 0 0 0 2.051-.406c.324-.133.633-.301.926-.493.289-.195.562-.418.808-.668.25-.246.473-.515.668-.808.196-.293.36-.602.493-.926.136-.324.238-.66.304-1.004a5.191 5.191 0 0 0 0-2.086 5.043 5.043 0 0 0-.304-1.004 5.317 5.317 0 0 0-1.16-1.734 5.5 5.5 0 0 0-.81-.664 5.55 5.55 0 0 0-.925-.496 5.615 5.615 0 0 0-1.004-.305 5.56 5.56 0 0 0-1.047-.101h-33.187v-27.176A75.874 75.874 0 0 0 206.98 295a76.683 76.683 0 0 0 6.82-2.145 76.803 76.803 0 0 0 12.891-6.156 75.65 75.65 0 0 0 5.957-3.953 75.741 75.741 0 0 0 5.563-4.492 75.182 75.182 0 0 0 5.113-4.992 75.86 75.86 0 0 0 8.727-11.301 76.745 76.745 0 0 0 6.46-12.73 75.353 75.353 0 0 0 2.313-6.762 76.842 76.842 0 0 0 1.668-6.95c.445-2.34.785-4.699 1.012-7.07.226-2.375.34-4.754.344-7.137 0-.351-.036-.699-.106-1.042a4.966 4.966 0 0 0-.305-1.004 5.259 5.259 0 0 0-1.16-1.735 5.259 5.259 0 0 0-1.734-1.16 5.043 5.043 0 0 0-1.004-.305 5.226 5.226 0 0 0-1.047-.101Zm0 0"/></g><path fill="#0e141b" d="M116.578 205.059c.352 0 .7-.036 1.043-.102a5.52 5.52 0 0 0 1.004-.305c.324-.136.633-.3.926-.496a5.291 5.291 0 0 0 1.476-1.472 5.55 5.55 0 0 0 .496-.926c.133-.324.235-.66.305-1.004.067-.344.102-.691.102-1.043v-23.078c0-.352-.035-.7-.102-1.043a5.52 5.52 0 0 0-.305-1.004 5.302 5.302 0 0 0-1.16-1.734 5.317 5.317 0 0 0-2.742-1.465 5.188 5.188 0 0 0-1.043-.102c-.351 0-.7.031-1.043.102-.347.066-.68.168-1.004.304a5.317 5.317 0 0 0-1.738 1.16c-.25.247-.469.516-.664.81a5.278 5.278 0 0 0-.8 1.929c-.071.344-.102.691-.102 1.043v23.078c0 .351.03.7.101 1.043a5.278 5.278 0 0 0 .8 1.93 5.291 5.291 0 0 0 1.477 1.473c.29.195.598.359.926.495a5.52 5.52 0 0 0 1.004.305c.344.066.692.102 1.043.102Zm0 0"/><g clip-path="url(#d)"><path fill="#0e141b" d="M96.207 177.055c-.352 0-.7.035-1.047.101a5.278 5.278 0 0 0-1.93.8c-.289.192-.562.415-.808.665a5.259 5.259 0 0 0-1.16 1.734c-.137.325-.239.66-.305 1.004-.07.344-.105.692-.105 1.043v11.54c0 .351.035.699.105 1.042.066.344.168.68.305 1.004a5.317 5.317 0 0 0 1.16 1.734 5.5 5.5 0 0 0 .808.665c.293.195.602.36.926.496.324.133.66.234 1.004.3a5.259 5.259 0 0 0 2.09 0c.344-.066.68-.167 1.004-.3.324-.137.633-.301.926-.496.293-.196.562-.418.812-.664a5.531 5.531 0 0 0 1.16-1.735c.133-.324.235-.66.305-1.004.066-.343.102-.691.102-1.043v-11.539c0-.351-.036-.699-.102-1.043a5.615 5.615 0 0 0-.305-1.004 5.302 5.302 0 0 0-1.973-2.398 5.278 5.278 0 0 0-1.929-.8 5.488 5.488 0 0 0-1.043-.102Zm0 0"/></g><path fill="#0e141b" d="M258.492 171.285c-.351 0-.699.031-1.043.102-.344.066-.68.168-1.004.304a5.259 5.259 0 0 0-1.738 1.16 5.302 5.302 0 0 0-1.16 1.735 5.52 5.52 0 0 0-.305 1.004 5.488 5.488 0 0 0-.101 1.043v23.078c0 .351.035.7.101 1.043.07.344.172.68.305 1.004.137.324.3.633.496.926a5.291 5.291 0 0 0 1.477 1.473c.293.195.601.359.925.495.325.133.66.235 1.004.305a5.488 5.488 0 0 0 2.09 0c.344-.07.68-.172 1.004-.305.324-.136.633-.3.926-.496a5.482 5.482 0 0 0 1.477-1.473c.195-.292.359-.601.492-.925.136-.324.238-.66.304-1.004.07-.344.106-.691.106-1.043v-23.078c0-.352-.036-.7-.106-1.043a4.966 4.966 0 0 0-.305-1.004 5.259 5.259 0 0 0-1.16-1.734 5.259 5.259 0 0 0-1.734-1.16 5.043 5.043 0 0 0-1.004-.305 5.226 5.226 0 0 0-1.047-.102Zm0 0"/><g clip-path="url(#e)"><path fill="#0e141b" d="M278.867 177.055c-.351 0-.699.035-1.047.101a5.278 5.278 0 0 0-1.93.8c-.288.192-.562.415-.808.665a5.259 5.259 0 0 0-1.16 1.734c-.137.325-.238.66-.305 1.004-.07.344-.105.692-.105 1.043v11.54c0 .351.035.699.105 1.042.067.344.168.68.305 1.004a5.317 5.317 0 0 0 1.16 1.734 5.5 5.5 0 0 0 .809.665c.293.195.601.36.925.496.325.133.66.234 1.004.3a5.259 5.259 0 0 0 2.09 0c.344-.066.68-.167 1.004-.3.324-.137.633-.301.926-.496.293-.196.562-.418.812-.664a5.53 5.53 0 0 0 1.16-1.735c.133-.324.235-.66.305-1.004.067-.343.102-.691.102-1.043v-11.539c0-.351-.035-.699-.102-1.043a5.616 5.616 0 0 0-.305-1.004 5.55 5.55 0 0 0-.496-.925 5.302 5.302 0 0 0-1.476-1.473 5.278 5.278 0 0 0-1.93-.8 5.488 5.488 0 0 0-1.043-.102Zm0 0"/></g><g clip-path="url(#f)"><path fill="#0e141b" d="M147.094 217.07h8.914c.351 0 .699.035 1.047.102.343.07.675.172 1.004.305.324.136.632.3.921.496.293.195.563.414.813.664.25.25.473.52.668.808.195.293.36.602.492.926.137.324.238.66.305 1.004.07.344.101.691.101 1.043s-.03.7-.101 1.043c-.067.344-.168.68-.305 1.004a5.259 5.259 0 0 1-1.973 2.398c-.289.196-.597.364-.921.496-.329.133-.66.235-1.004.305a5.56 5.56 0 0 1-1.047.102h-18.254c.043 1.601.16 3.199.355 4.793a49.952 49.952 0 0 0 2.082 9.367c.5 1.523 1.067 3.02 1.711 4.488a49.506 49.506 0 0 0 7.598 12.2 50.593 50.593 0 0 0 3.273 3.515 49.645 49.645 0 0 0 3.602 3.18 49.343 49.343 0 0 0 8.035 5.257 50.768 50.768 0 0 0 4.363 2.024 49.862 49.862 0 0 0 4.536 1.59c1.535.46 3.093.843 4.668 1.148 1.574.309 3.16.54 4.757.695a49.25 49.25 0 0 0 4.801.23 49.33 49.33 0 0 0 9.559-.925 47.933 47.933 0 0 0 4.672-1.148 50.71 50.71 0 0 0 4.535-1.59 51.247 51.247 0 0 0 4.36-2.024 49.367 49.367 0 0 0 8.034-5.257c1.254-1 2.453-2.063 3.602-3.18a50.65 50.65 0 0 0 3.277-3.516 50.314 50.314 0 0 0 2.922-3.816c.91-1.32 1.758-2.68 2.54-4.078a50.682 50.682 0 0 0 2.136-4.305 50.142 50.142 0 0 0 2.977-9.121 49.937 49.937 0 0 0 1.167-9.527H219.06c-.352 0-.7-.036-1.047-.102a5.714 5.714 0 0 1-1.004-.305 5.109 5.109 0 0 1-.922-.496 5.291 5.291 0 0 1-.813-.664 5.259 5.259 0 0 1-1.16-1.734 5.043 5.043 0 0 1-.304-1.004 5.188 5.188 0 0 1-.102-1.043c0-.352.031-.7.102-1.043.066-.344.168-.68.304-1.004a5.259 5.259 0 0 1 1.973-2.398c.289-.196.598-.36.922-.496.328-.133.66-.235 1.004-.305a5.56 5.56 0 0 1 1.047-.102h18.316v-16.168h-18.316c-.352 0-.7-.035-1.047-.101a5.714 5.714 0 0 1-1.004-.305 5.109 5.109 0 0 1-.922-.496 5.072 5.072 0 0 1-.813-.664 5.259 5.259 0 0 1-1.16-1.734 5.043 5.043 0 0 1-.304-1.004 5.188 5.188 0 0 1-.102-1.043c0-.352.031-.7.102-1.043.066-.344.168-.68.304-1.004a5.317 5.317 0 0 1 1.973-2.398c.289-.196.598-.36.922-.497.328-.133.66-.234 1.004-.304a5.56 5.56 0 0 1 1.047-.102h18.316v-16.164h-18.316c-.352 0-.7-.035-1.047-.102a5.714 5.714 0 0 1-1.004-.304 5.365 5.365 0 0 1-.922-.496 5.292 5.292 0 0 1-.813-.664 5.259 5.259 0 0 1-1.16-1.734 5.043 5.043 0 0 1-.304-1.005 5.188 5.188 0 0 1-.102-1.043c0-.351.031-.699.102-1.043.066-.343.168-.68.304-1.004a5.259 5.259 0 0 1 1.973-2.398c.289-.195.598-.363.922-.496.328-.133.66-.234 1.004-.305a5.56 5.56 0 0 1 1.047-.101h18.316v-3.93a50.95 50.95 0 0 0-.238-4.883 50.379 50.379 0 0 0-.719-4.832 50.683 50.683 0 0 0-1.188-4.742 50.798 50.798 0 0 0-1.648-4.602 50.125 50.125 0 0 0-4.605-8.609 49.239 49.239 0 0 0-2.915-3.922 49.743 49.743 0 0 0-3.285-3.621 48.92 48.92 0 0 0-3.625-3.285 50.976 50.976 0 0 0-3.925-2.91 50.162 50.162 0 0 0-8.617-4.602 49.28 49.28 0 0 0-4.606-1.644 49.568 49.568 0 0 0-4.746-1.188 49.255 49.255 0 0 0-4.836-.719 49.79 49.79 0 0 0-4.887-.238 49.652 49.652 0 0 0-14.465 2.145 49.642 49.642 0 0 0-9.027 3.734 49.395 49.395 0 0 0-4.195 2.512 49.718 49.718 0 0 0-10.836 9.816 48.303 48.303 0 0 0-2.914 3.922 49.989 49.989 0 0 0-2.516 4.191 50.09 50.09 0 0 0-3.738 9.02 49.491 49.491 0 0 0-1.188 4.742 49.715 49.715 0 0 0-.96 9.715v3.93h18.312c.351 0 .699.035 1.047.101.343.07.675.172 1.004.305.324.133.632.3.921.496.293.191.563.414.813.664a5.259 5.259 0 0 1 1.16 1.734c.137.325.238.66.305 1.004.07.344.101.692.101 1.043 0 .352-.03.7-.101 1.043-.067.344-.168.68-.305 1.004a5.259 5.259 0 0 1-.492.926c-.195.289-.418.559-.668.809-.25.25-.52.468-.813.664-.289.195-.597.359-.921.496-.329.133-.66.234-1.004.304a5.56 5.56 0 0 1-1.047.102h-18.313v16.164h18.313c.351 0 .699.035 1.047.102.343.07.675.171 1.004.304.324.137.632.301.921.496a5.292 5.292 0 0 1 1.48 1.477c.196.289.36.598.493.922.137.324.238.66.305 1.004.07.343.101.691.101 1.043 0 .351-.03.699-.101 1.043-.067.343-.168.68-.305 1.004a5.259 5.259 0 0 1-1.16 1.734 5.317 5.317 0 0 1-2.738 1.465 5.56 5.56 0 0 1-1.047.101h-18.313v16.168Zm35.09-48.375c0-.351.035-.699.101-1.043.07-.343.172-.68.305-1.004.137-.324.3-.632.496-.925.195-.29.418-.563.664-.809.25-.25.52-.473.813-.664a5.278 5.278 0 0 1 1.93-.8 5.488 5.488 0 0 1 2.089 0c.344.07.676.171 1.004.304.324.133.633.3.922.496.293.191.566.414.812.664a5.259 5.259 0 0 1 1.16 1.734c.137.325.239.66.305 1.004.07.344.102.692.102 1.043v26.86c0 .351-.032.699-.102 1.043-.066.343-.168.68-.305 1.004a5.259 5.259 0 0 1-1.972 2.398c-.29.195-.598.363-.922.496-.328.133-.66.234-1.004.305a5.488 5.488 0 0 1-2.09 0 5.278 5.278 0 0 1-1.93-.8 5.302 5.302 0 0 1-1.973-2.398 5.615 5.615 0 0 1-.304-1.005 5.488 5.488 0 0 1-.101-1.043Zm1.55 49.926c.258-.234.532-.445.825-.633a5.518 5.518 0 0 1 1.93-.754c.34-.066.687-.097 1.034-.097.348 0 .692.031 1.036.097a5.479 5.479 0 0 1 1.925.754c.297.188.57.399.825.633a5.259 5.259 0 0 1 1.168 1.742 5.3 5.3 0 0 1 .41 2.055c.008.352-.032.7-.106 1.043-.062.351-.16.687-.293 1.016a4.413 4.413 0 0 1-.508.91c-.195.3-.417.578-.671.828-.5.496-1.079.879-1.73 1.148a5.42 5.42 0 0 1-4.094 0 5.443 5.443 0 0 1-1.75-1.148 6.594 6.594 0 0 1-.641-.828 4.239 4.239 0 0 1-.508-.91 4.81 4.81 0 0 1-.297-1.016 4.68 4.68 0 0 1-.105-1.043c0-.711.136-1.395.406-2.05a5.352 5.352 0 0 1 1.144-1.747Zm0 0"/></g><path fill="#0e141b" d="m106.128 122.434-3.39 5.453-13.766-4.328c-.5-.145-1.492-.489-2.984-1.032-1.489-.55-2.473-.957-2.953-1.218.511.417 1.308 1.136 2.39 2.156a79.837 79.837 0 0 1 2.281 2.187l9.922 10.438-3.39 5.437-26.172-8.312 2.937-4.703 14.141 4.78c2.586.907 4.781 1.767 6.594 2.579-.543-.426-1.36-1.129-2.453-2.11-1.094-.988-1.922-1.796-2.485-2.421l-10.61-11.156 2.813-4.532 14.703 4.594c.665.21 1.645.57 2.938 1.078 1.289.512 2.39.965 3.297 1.36a74.157 74.157 0 0 1-2.688-2.36 54.16 54.16 0 0 1-2.515-2.437L84.175 107.34l2.938-4.703ZM125.288 104.044l-11.453 10.188-17.688-19.875L107.6 84.169l3.079 3.454-7.235 6.437 3.875 4.36 6.735-6 3.078 3.453-6.735 6 4.563 5.125 7.234-6.438ZM144.428 77.577c2.008 3.898 2.437 7.453 1.281 10.672-1.148 3.21-3.812 5.898-8 8.062l-6.687 3.453-12.204-23.64 7.422-3.844c3.864-1.988 7.39-2.516 10.578-1.578 3.188.937 5.723 3.23 7.61 6.875Zm-5.156 2.843c-2.625-5.082-6.184-6.468-10.672-4.156l-2.657 1.375 7.954 15.39 2.156-1.109c4.82-2.488 5.894-6.32 3.219-11.5ZM180.111 83.078l-7.047 1.328-15.094-17.64-.156.03c.883 3.45 1.469 5.923 1.75 7.423l2.313 12.297-4.97.921-4.921-26.156 7-1.312 15.047 17.468.125-.03c-.813-3.364-1.356-5.755-1.625-7.173l-2.328-12.375 4.984-.937ZM203.575 84.42l-15.297-1.172 2.031-26.531 15.297 1.172-.36 4.609-9.671-.734-.438 5.828 9 .687-.36 4.61-9-.688-.515 6.844 9.672.734ZM228.109 83.479c-.7 2.3-2.078 3.86-4.14 4.672-2.063.812-4.563.77-7.5-.125-2.72-.836-4.97-2.078-6.75-3.735l1.53-5.015c1.5 1.293 2.79 2.277 3.875 2.953 1.094.68 2.133 1.168 3.125 1.469 1.176.355 2.149.402 2.922.14.77-.258 1.29-.832 1.563-1.719.144-.5.14-.984-.016-1.453-.156-.476-.453-.976-.89-1.5-.43-.52-1.34-1.43-2.735-2.734-1.344-1.207-2.308-2.266-2.89-3.172a8.085 8.085 0 0 1-1.141-2.906c-.188-1.04-.102-2.16.265-3.36.676-2.238 1.977-3.77 3.907-4.593 1.926-.832 4.234-.836 6.922-.016 1.32.406 2.535.95 3.64 1.625 1.114.68 2.235 1.5 3.36 2.469l-3.016 3.687c-1.2-.976-2.211-1.71-3.031-2.203-.813-.5-1.649-.879-2.5-1.14-1.024-.313-1.883-.313-2.578 0-.688.312-1.149.855-1.375 1.625-.149.48-.168.93-.063 1.343.113.418.363.868.75 1.344.383.48 1.348 1.422 2.89 2.828 2.032 1.856 3.305 3.492 3.829 4.906.531 1.418.547 2.954.047 4.61ZM257.835 92.827c-2.273 3.75-5.078 5.973-8.422 6.672-3.336.696-7.015-.172-11.047-2.609l-6.437-3.906 13.797-22.75 7.14 4.328c3.72 2.25 6.004 4.98 6.86 8.187.863 3.211.234 6.57-1.89 10.078Zm-5.078-2.906c2.957-4.883 2.273-8.633-2.047-11.25l-2.562-1.562-8.985 14.812 2.063 1.25c4.656 2.82 8.5 1.738 11.531-3.25ZM267.132 120.847l3.28-5.75-6.64-7.063-5.937 2.922-4.157-4.422 25.907-11.453 4.718 5.016-13 25.172Zm5.812-9.969c2.957-5.227 4.633-8.18 5.031-8.86.395-.675.72-1.203.97-1.578-1.407.774-4.993 2.563-10.75 5.375ZM291.434 129.33l12.282-.422 2.921 5.328-18.5.094-9.078 4.984-2.687-4.906 8.922-4.89 10.156-15.657 2.937 5.36Zm0 0"/><path fill="#facc15" d="m145.117 345.429-1.125-3.657h-5.61l-1.109 3.657h-3.516l5.422-15.438h4l5.438 15.438Zm-1.907-6.391c-1.03-3.32-1.617-5.195-1.75-5.625a13.318 13.318 0 0 1-.265-1.047c-.23.906-.89 3.133-1.985 6.672ZM162.18 345.429h-3.266v-12.672h-4.171v-2.703h11.609v2.703h-4.172ZM195.295 336.616c0 3.031-.641 5.293-1.922 6.781-1.274 1.493-3.2 2.235-5.782 2.235-.918 0-1.609-.047-2.078-.14v-2.61c.594.148 1.211.218 1.86.218 1.082 0 1.972-.156 2.672-.468a3.355 3.355 0 0 0 1.609-1.5c.375-.688.586-1.633.64-2.844h-.124c-.407.668-.875 1.137-1.407 1.406-.531.262-1.199.39-2 .39-1.336 0-2.39-.425-3.172-1.28-.773-.864-1.156-2.063-1.156-3.594 0-1.645.469-2.945 1.406-3.906.938-.957 2.211-1.438 3.829-1.438 1.132 0 2.128.266 2.984.797.851.531 1.504 1.309 1.953 2.328.457 1.012.688 2.219.688 3.625Zm-5.563-4.14c-.68 0-1.203.234-1.578.703-.375.46-.563 1.12-.563 1.984 0 .75.172 1.344.516 1.781.344.43.863.64 1.563.64.656 0 1.218-.21 1.687-.64.477-.426.719-.922.719-1.484 0-.832-.227-1.535-.672-2.11-.438-.582-.996-.875-1.672-.875ZM206.932 337.288h1.063c1.008 0 1.758-.195 2.25-.594.5-.394.75-.972.75-1.734 0-.758-.211-1.32-.625-1.688-.418-.363-1.07-.547-1.953-.547h-1.485Zm7.36-2.438c0 1.657-.524 2.922-1.563 3.797-1.031.875-2.5 1.313-4.406 1.313h-1.39v5.469h-3.266v-15.375h4.906c1.863 0 3.281.402 4.25 1.203.977.804 1.469 2 1.469 3.593ZM229.394 345.429l-3.703-12.063h-.093c.125 2.45.187 4.086.187 4.906v7.157h-2.906v-15.375h4.437l3.641 11.75h.062l3.86-11.75h4.437v15.375h-3.03v-7.282c0-.343.003-.738.015-1.187.008-.445.054-1.64.14-3.578h-.093l-3.97 12.047Zm0 0"/></svg>